<?xml version="1.0" encoding="UTF-8"?>
<svg id="Layer_1" data-name="Layer 1" xmlns="http://www.w3.org/2000/svg" width="194.36mm" height="36.76mm" xmlns:xlink="http://www.w3.org/1999/xlink" viewBox="0 0 550.94 104.2">
  <defs>
    <clipPath id="clippath">
      <path d="M504.65,93.08h0s0,0,0,0M504.65,93.08s0,0,0,0l2.88,9.49h19.35l.11-.34,1.43-4.05c-8.12-3.37-16.47-6.49-25.04-9.32l1.28,4.22Z" fill="#fff"/>
    </clipPath>
    <clipPath id="clippath-1">
      <path d="M451.92,79.11s.01,0,.02,0l8.35,23.45h19.2l4.44-14.98,1.26-4.24c-11.23-3.11-22.78-5.76-34.58-7.95l1.32,3.71Z" fill="#fff"/>
    </clipPath>
    <clipPath id="clippath-2">
      <path d="M422.42,71.15s0,.08-.01.12c-1.28,9.26-9.12,16.5-18.59,16.5-10.52,0-19-8.64-19.18-19.39-4.98-.16-9.98-.26-14.97-.26-.26,0-.53,0-.79,0,0,.02,0,.04,0,.07,0,19.58,15.74,35.39,35.08,35.39,16.82,0,30.91-12.39,33.82-28.72.09-.53.14-1.07.21-1.6-5.15-.79-10.34-1.5-15.57-2.11" fill="#fff"/>
    </clipPath>
    <clipPath id="clippath-3">
      <path d="M330.68,69.83v31.93h16.23v-33.04c-5.42.29-10.84.64-16.23,1.11" fill="#fff"/>
    </clipPath>
    <clipPath id="clippath-4">
      <path d="M261.56,81.06v20.7h16.22v-24.31c-5.45,1.1-10.85,2.33-16.22,3.62" fill="#fff"/>
    </clipPath>
    <clipPath id="clippath-5">
      <path d="M304.69,72.83v28.93h16.23v-30.98c-5.43.58-10.84,1.29-16.23,2.05" fill="#fff"/>
    </clipPath>
    <clipPath id="clippath-6">
      <path d="M239.65,89.99c-2.21,0-3.84-.51-4.88-1.63-5.43,1.67-10.66,3.76-15.97,5.63,2.93,7.25,9.94,10.2,19.24,10.2,6.35,0,12.17-1.76,18.12-3.79l-4.46-13.12c-3.92,1.35-7.84,2.7-12.04,2.7" fill="#fff"/>
    </clipPath>
    <clipPath id="clippath-7">
      <path d="M113.26,46.05c9.06,0,13.66,6.63,13.79,15.15h-27.86c.41-8.12,5.41-15.15,14.06-15.15M81.75,68.09c0,20.96,13.79,35.16,34.62,35.16,7.98,0,15.96-1.89,23.26-5l-5.14-12.58c-4.87,2.16-11.63,3.52-17.18,3.52-10,0-17.04-4.87-18.12-15.28h43.68c.41-2.98.95-5.95.95-8.93,0-18.8-11.22-32.32-30.7-32.32-20.69,0-31.37,15.82-31.37,35.43" fill="#fff"/>
    </clipPath>
    <clipPath id="clippath-8">
      <path d="M436.04,34.33l11.24,31.7c6.54.94,13.01,2.02,19.41,3.25l-11.69-34.95h-18.96Z" fill="#fff"/>
    </clipPath>
    <clipPath id="clippath-9">
      <path d="M533.3,34.33l-15.1,46.9-16.96-46.9h-15.4l-13.06,36.15c5.12,1.06,10.18,2.22,15.19,3.46l5.38-18.16,6.45,21.28c11.05,3.1,21.82,6.66,32.31,10.66l18.83-53.39h-17.64Z" fill="#fff"/>
    </clipPath>
    <clipPath id="clippath-10">
      <path d="M380.5,61.27c1.81,0,3.61.04,5.42.06,2.8-7.18,9.86-12.45,17.76-12.45,8.41,0,15.77,6.07,18.12,14.22,5.49.47,10.94,1.05,16.34,1.71-1.82-18.05-16.52-31.88-34.6-31.88-16.92,0-30.92,12.18-34.01,28.48,3.67-.08,7.33-.14,10.96-.14" fill="#fff"/>
    </clipPath>
    <clipPath id="clippath-11">
      <path d="M329.47,40.1s1.22,6.76,1.22,10.14v13.49c5.39-.53,10.8-.99,16.23-1.34v-12.55c0-.41-.14-1.35-.14-1.35,3.92-1.22,8.12-1.76,12.18-1.76,2.98,0,6.76.68,8.92,1.35l4.87-13.93c-3.65-.95-8.25-1.49-12.44-1.49-10.68,0-21.1,3.38-30.83,7.44" fill="#fff"/>
    </clipPath>
    <clipPath id="clippath-12">
      <path d="M261.56,6.34v69.45c5.37-1.37,10.77-2.66,16.22-3.84v-20.23c4.47-2.7,10.28-5,15.56-5,6.76,0,11.36,4.87,11.36,12.3v7.98c5.38-.83,10.79-1.57,16.23-2.22v-8.19c0-15.01-7.98-23.94-23.12-23.94-6.9,0-13.79,1.76-20.02,4.46V0l-16.22,6.34Z" fill="#fff"/>
    </clipPath>
    <clipPath id="clippath-13">
      <path d="M233.43,12.5l-16.22,6.34v15.57l-7.71.41v12.85l7.71.4v37.33c0,1.46.12,2.81.33,4.09,5.25-1.95,10.54-3.83,15.9-5.58v-35.7h18.93v-14.06h-18.93V12.5h-.01Z" fill="#fff"/>
    </clipPath>
    <clipPath id="clippath-14">
      <path d="M163.99,81.48c0-7.57,18.53-4.96,24.07-10.24v14.02c0,.95.05,2.79.05,2.79-3.79,1.22-7.63,1.68-11.55,1.68-5.81,0-12.58-1.22-12.58-8.25M152.36,38.47l5.54,12.31c5.68-2.44,12.71-4.06,18.8-4.06,4.06,0,11.36.54,11.36,6.22,0,11.76-41.92,2.43-41.92,29.75,0,15.82,17.31,20.55,30.29,20.55,4.06,0,7.27-.25,9.99-.71,5.85-2.75,11.79-5.38,17.84-7.87,0-.26.03-2.54.03-5.22v-34.75c0-15.69-10.82-22.04-25.29-22.04-8.79,0-18.66,2.16-26.64,5.81" fill="#fff"/>
    </clipPath>
    <clipPath id="clippath-15">
      <polygon points="0 12.95 0 101.76 16.9 101.76 16.9 60.65 57.61 60.65 57.61 101.76 74.51 101.76 74.51 6.38 57.61 12.99 57.61 46.59 16.9 46.59 16.9 6.34 0 12.95" fill="#fff"/>
    </clipPath>
  </defs>
  <g>
    <path d="M504.65,93.08h0s0,0,0,0M504.65,93.08s0,0,0,0l2.88,9.49h19.35l.11-.34,1.43-4.05c-8.12-3.37-16.47-6.49-25.04-9.32l1.28,4.22Z" fill="#fff"/>
    <g clip-path="url(#clippath)">
      <rect x="503.37" y="88.86" width="25.04" height="13.71" fill="#fff"/>
    </g>
  </g>
  <g>
    <path d="M451.92,79.11s.01,0,.02,0l8.35,23.45h19.2l4.44-14.98,1.26-4.24c-11.23-3.11-22.78-5.76-34.58-7.95l1.32,3.71Z" fill="#fff"/>
    <g clip-path="url(#clippath-1)">
      <rect x="450.61" y="75.4" width="34.58" height="27.17" fill="#fff"/>
    </g>
  </g>
  <g>
    <path d="M422.42,71.15s0,.08-.01.12c-1.28,9.26-9.12,16.5-18.59,16.5-10.52,0-19-8.64-19.18-19.39-4.98-.16-9.98-.26-14.97-.26-.26,0-.53,0-.79,0,0,.02,0,.04,0,.07,0,19.58,15.74,35.39,35.08,35.39,16.82,0,30.91-12.39,33.82-28.72.09-.53.14-1.07.21-1.6-5.15-.79-10.34-1.5-15.57-2.11" fill="#fff"/>
    <g clip-path="url(#clippath-2)">
      <rect x="368.89" y="68.12" width="69.11" height="35.46" fill="#fff"/>
    </g>
  </g>
  <g>
    <path d="M330.68,69.83v31.93h16.23v-33.04c-5.42.29-10.84.64-16.23,1.11" fill="#fff"/>
    <g clip-path="url(#clippath-3)">
      <rect x="330.68" y="68.72" width="16.23" height="33.04" fill="#fff"/>
    </g>
  </g>
  <g>
    <path d="M261.56,81.06v20.7h16.22v-24.31c-5.45,1.1-10.85,2.33-16.22,3.62" fill="#fff"/>
    <g clip-path="url(#clippath-4)">
      <rect x="261.56" y="77.45" width="16.22" height="24.31" fill="#fff"/>
    </g>
  </g>
  <g>
    <path d="M304.69,72.83v28.93h16.23v-30.98c-5.43.58-10.84,1.29-16.23,2.05" fill="#fff"/>
    <g clip-path="url(#clippath-5)">
      <rect x="304.69" y="70.78" width="16.23" height="30.98" fill="#fff"/>
    </g>
  </g>
  <g>
    <path d="M239.65,89.99c-2.21,0-3.84-.51-4.88-1.63-5.43,1.67-10.66,3.76-15.97,5.63,2.93,7.25,9.94,10.2,19.24,10.2,6.35,0,12.17-1.76,18.12-3.79l-4.46-13.12c-3.92,1.35-7.84,2.7-12.04,2.7" fill="#fff"/>
    <g clip-path="url(#clippath-6)">
      <rect x="218.8" y="87.29" width="37.36" height="16.91" fill="#fff"/>
    </g>
  </g>
  <g>
    <path d="M113.26,46.05c9.06,0,13.66,6.63,13.79,15.15h-27.86c.41-8.12,5.41-15.15,14.06-15.15M81.75,68.09c0,20.96,13.79,35.16,34.62,35.16,7.98,0,15.96-1.89,23.26-5l-5.14-12.58c-4.87,2.16-11.63,3.52-17.18,3.52-10,0-17.04-4.87-18.12-15.28h43.68c.41-2.98.95-5.95.95-8.93,0-18.8-11.22-32.32-30.7-32.32-20.69,0-31.37,15.82-31.37,35.43" fill="#fff"/>
    <g clip-path="url(#clippath-7)">
      <rect x="81.75" y="32.66" width="62.07" height="70.59" fill="#fff"/>
    </g>
  </g>
  <g>
    <path d="M436.04,34.33l11.24,31.7c6.54.94,13.01,2.02,19.41,3.25l-11.69-34.95h-18.96Z" fill="#fff"/>
    <g clip-path="url(#clippath-8)">
      <rect x="436.04" y="34.33" width="30.65" height="34.95" fill="#fff"/>
    </g>
  </g>
  <g>
    <path d="M533.3,34.33l-15.1,46.9-16.96-46.9h-15.4l-13.06,36.15c5.12,1.06,10.18,2.22,15.19,3.46l5.38-18.16,6.45,21.28c11.05,3.1,21.82,6.66,32.31,10.66l18.83-53.39h-17.64Z" fill="#fff"/>
    <g clip-path="url(#clippath-9)">
      <rect x="472.78" y="34.33" width="78.16" height="53.39" fill="#fff"/>
    </g>
  </g>
  <g>
    <path d="M380.5,61.27c1.81,0,3.61.04,5.42.06,2.8-7.18,9.86-12.45,17.76-12.45,8.41,0,15.77,6.07,18.12,14.22,5.49.47,10.94,1.05,16.34,1.71-1.82-18.05-16.52-31.88-34.6-31.88-16.92,0-30.92,12.18-34.01,28.48,3.67-.08,7.33-.14,10.96-.14" fill="#fff"/>
    <g clip-path="url(#clippath-10)">
      <rect x="369.54" y="32.93" width="68.61" height="31.88" fill="#fff"/>
    </g>
  </g>
  <g>
    <path d="M329.47,40.1s1.22,6.76,1.22,10.14v13.49c5.39-.53,10.8-.99,16.23-1.34v-12.55c0-.41-.14-1.35-.14-1.35,3.92-1.22,8.12-1.76,12.18-1.76,2.98,0,6.76.68,8.92,1.35l4.87-13.93c-3.65-.95-8.25-1.49-12.44-1.49-10.68,0-21.1,3.38-30.83,7.44" fill="#fff"/>
    <g clip-path="url(#clippath-11)">
      <rect x="329.47" y="32.66" width="43.27" height="31.07" fill="#fff"/>
    </g>
  </g>
  <g>
    <path d="M261.56,6.34v69.45c5.37-1.37,10.77-2.66,16.22-3.84v-20.23c4.47-2.7,10.28-5,15.56-5,6.76,0,11.36,4.87,11.36,12.3v7.98c5.38-.83,10.79-1.57,16.23-2.22v-8.19c0-15.01-7.98-23.94-23.12-23.94-6.9,0-13.79,1.76-20.02,4.46V0l-16.22,6.34Z" fill="#fff"/>
    <g clip-path="url(#clippath-12)">
      <rect x="261.56" width="59.36" height="75.79" fill="#fff"/>
    </g>
  </g>
  <g>
    <path d="M233.43,12.5l-16.22,6.34v15.57l-7.71.41v12.85l7.71.4v37.33c0,1.46.12,2.81.33,4.09,5.25-1.95,10.54-3.83,15.9-5.58v-35.7h18.93v-14.06h-18.93V12.5h-.01Z" fill="#fff"/>
    <g clip-path="url(#clippath-13)">
      <rect x="209.5" y="12.5" width="42.87" height="76.98" fill="#fff"/>
    </g>
  </g>
  <g>
    <path d="M163.99,81.48c0-7.57,18.53-4.96,24.07-10.24v14.02c0,.95.05,2.79.05,2.79-3.79,1.22-7.63,1.68-11.55,1.68-5.81,0-12.58-1.22-12.58-8.25M152.36,38.47l5.54,12.31c5.68-2.44,12.71-4.06,18.8-4.06,4.06,0,11.36.54,11.36,6.22,0,11.76-41.92,2.43-41.92,29.75,0,15.82,17.31,20.55,30.29,20.55,4.06,0,7.27-.25,9.99-.71,5.85-2.75,11.79-5.38,17.84-7.87,0-.26.03-2.54.03-5.22v-34.75c0-15.69-10.82-22.04-25.29-22.04-8.79,0-18.66,2.16-26.64,5.81" fill="#fff"/>
    <g clip-path="url(#clippath-14)">
      <rect x="146.13" y="32.66" width="58.15" height="70.59" fill="#fff"/>
    </g>
  </g>
  <g>
    <polygon points="0 12.95 0 101.76 16.9 101.76 16.9 60.65 57.61 60.65 57.61 101.76 74.51 101.76 74.51 6.38 57.61 12.99 57.61 46.59 16.9 46.59 16.9 6.34 0 12.95" fill="#fff"/>
    <g clip-path="url(#clippath-15)">
      <rect y="6.34" width="74.51" height="95.42" fill="#fff"/>
    </g>
  </g>
</svg>